<svg width="14" height="10" viewBox="0 0 14 10" fill="none" xmlns="http://www.w3.org/2000/svg">
<path d="M13.66 1.3C13.45 1.29 13.24 1.28 13.03 1.27V0.789997C13.03 0.699997 12.95 0.619997 12.85 0.609997C12.58 0.589997 12.3 0.579997 12.03 0.579997V0.239997C12.03 0.149997 11.96 0.0799965 11.86 0.0599965C10.21 -0.130003 8.57 0.109997 7.11 0.749997L6.92 0.829997L6.73 0.749997C5.27 0.109997 3.62 -0.130003 1.98 0.0599965C1.88 0.0699965 1.81 0.149997 1.81 0.239997V0.579997C1.54 0.579997 1.26 0.589997 0.99 0.609997C0.89 0.609997 0.81 0.689997 0.81 0.789997V1.27C0.6 1.27 0.39 1.28 0.18 1.3C0.08 1.3 0 1.38 0 1.47V9.05C0 9.05 0.02 9.14 0.06 9.18C0.1 9.21 0.15 9.23 0.21 9.23C2.42 9.04 4.65 9.12 6.83 9.49H6.88C6.88 9.49 6.9 9.49 6.91 9.49C6.91 9.49 6.93 9.49 6.94 9.49H6.99C9.17 9.11 11.4 9.02 13.61 9.22C13.66 9.22 13.72 9.21 13.75 9.17C13.79 9.14 13.81 9.09 13.81 9.04V1.47C13.81 1.38 13.73 1.3 13.63 1.3H13.66ZM1.97 8.27C1.71 8.27 1.45 8.27 1.19 8.29V0.959997C1.39 0.949997 1.6 0.939997 1.8 0.939997V7.53C1.8 7.53 1.82 7.63 1.86 7.66C1.89 7.68 1.92 7.7 1.96 7.7C3.08 7.88 4.15 8.19 5.15 8.62C4.11 8.39 3.04 8.27 1.96 8.27H1.97ZM6.72 9L6.61 8.94C5.27 8.18 3.79 7.66 2.19 7.38V0.399997C3.69 0.259997 5.23 0.499997 6.56 1.07L6.72 1.14V9ZM7.11 9V1.14L7.27 1.07C8.6 0.489997 10.14 0.249997 11.64 0.399997V7.38C10.04 7.66 8.56 8.18 7.22 8.94L7.11 9ZM12.64 8.29C11.3 8.22 9.96 8.33 8.68 8.62C9.68 8.19 10.74 7.88 11.86 7.7C11.9 7.7 11.94 7.68 11.96 7.65C12 7.62 12.02 7.57 12.02 7.52V0.939997C12.22 0.939997 12.43 0.939997 12.63 0.959997V8.3L12.64 8.29Z" fill="#1C1C1C"/>
</svg>
